<svg xmlns="http://www.w3.org/2000/svg" width="712.40" height="418.40" viewBox="0 0 712.40 418.40">
<rect width="712.40" height="418.40" fill="#ffffff"/>
<path d="M 301.33 112.81 L 384.90 200.94 L 214.10 202.98 Z" fill="#f8f9fa" stroke="none" opacity="1.00"/><path d="M 300.85 115.83 C 324.39 139.80, 350.38 165.05, 388.24 201.30 M 300.97 114.34 C 331.70 145.72, 362.55 176.11, 386.36 201.98 M 387.73 202.47 C 347.94 199.99, 313.49 200.57, 214.75 202.66 M 387.05 202.86 C 337.52 202.98, 289.31 202.22, 212.36 203.21 M 214.83 201.37 C 243.33 170.33, 273.02 139.66, 301.78 115.91 M 212.37 202.39 C 243.77 171.06, 272.65 141.50, 299.11 114.13" stroke="#868e96" stroke-width="1.5" fill="none" stroke-linecap="round" stroke-linejoin="round" opacity="1.00"/>
<path d="M 212.13 202.60 L 387.18 201.47 L 473.74 289.45 L 126.74 291.89 Z" fill="#dee2e6" stroke="none" opacity="1.00"/><path d="M 215.15 202.35 C 259.66 203.08, 308.61 201.87, 384.91 201.46 M 213.18 202.50 C 277.37 203.99, 343.11 203.54, 386.64 202.04 M 386.47 203.43 C 413.43 233.32, 444.80 260.74, 473.90 291.97 M 387.39 201.51 C 405.36 222.73, 424.08 241.11, 472.70 290.35 M 472.84 290.13 C 349.81 289.85, 226.60 288.74, 125.92 290.77 M 473.49 290.82 C 390.22 291.11, 306.92 290.90, 126.21 290.16 M 126.58 290.96 C 156.25 259.69, 186.55 229.48, 213.01 202.95 M 127.19 290.28 C 152.09 265.04, 175.36 240.12, 213.16 202.77" stroke="#868e96" stroke-width="1.5" fill="none" stroke-linecap="round" stroke-linejoin="round" opacity="1.00"/>
<path d="M 128.20 291.86 L 473.11 291.80 L 560.59 380.17 L 38.12 377.69 Z" fill="#ffe8cc" stroke="none" opacity="1.00"/><path d="M 125.43 290.82 C 240.27 289.23, 351.69 289.89, 472.60 289.71 M 126.30 289.80 C 213.85 292.12, 301.61 292.02, 473.39 290.44 M 473.70 291.66 C 493.49 309.65, 509.47 327.16, 558.33 377.80 M 472.57 290.17 C 501.01 317.97, 526.95 345.13, 559.10 377.54 M 560.11 378.30 C 403.62 377.47, 247.06 376.91, 39.96 378.63 M 560.25 378.58 C 389.49 380.21, 218.96 380.19, 40.01 378.16 M 41.72 378.06 C 63.17 354.82, 85.02 331.83, 124.81 289.21 M 39.89 377.67 C 72.13 346.30, 104.71 314.82, 127.66 289.74" stroke="#e8590c" stroke-width="2.0" fill="none" stroke-linecap="round" stroke-linejoin="round" opacity="1.00"/>
<text x="40.00" y="40.00" font-size="24" font-family="Excalifont, Virgil, 'Segoe Print', 'Bradley Hand', 'Chalkboard SE', Chalkboard, 'Comic Sans MS', cursive" fill="#1e1e1e" text-anchor="start" opacity="1.00"><tspan x="40.00" dy="24.00">Test strategy</tspan></text>
<text x="300.00" y="148.80" font-size="16" font-family="Excalifont, Virgil, 'Segoe Print', 'Bradley Hand', 'Chalkboard SE', Chalkboard, 'Comic Sans MS', cursive" fill="#1e1e1e" text-anchor="middle" opacity="1.00"><tspan x="300.00" dy="16.00">E2E</tspan></text>
<text x="406.67" y="150.40" font-size="14" font-family="Excalifont, Virgil, 'Segoe Print', 'Bradley Hand', 'Chalkboard SE', Chalkboard, 'Comic Sans MS', cursive" fill="#868e96" text-anchor="start" opacity="1.00"><tspan x="406.67" dy="14.00">~40 specs</tspan></text>
<text x="300.00" y="236.80" font-size="16" font-family="Excalifont, Virgil, 'Segoe Print', 'Bradley Hand', 'Chalkboard SE', Chalkboard, 'Comic Sans MS', cursive" fill="#1e1e1e" text-anchor="middle" opacity="1.00"><tspan x="300.00" dy="16.00">Integration</tspan></text>
<text x="493.33" y="238.40" font-size="14" font-family="Excalifont, Virgil, 'Segoe Print', 'Bradley Hand', 'Chalkboard SE', Chalkboard, 'Comic Sans MS', cursive" fill="#868e96" text-anchor="start" opacity="1.00"><tspan x="493.33" dy="14.00">~400 tests</tspan></text>
<text x="300.00" y="324.80" font-size="16" font-family="Excalifont, Virgil, 'Segoe Print', 'Bradley Hand', 'Chalkboard SE', Chalkboard, 'Comic Sans MS', cursive" fill="#e8590c" text-anchor="middle" opacity="1.00"><tspan x="300.00" dy="16.00">Unit</tspan></text>
<text x="580.00" y="326.40" font-size="14" font-family="Excalifont, Virgil, 'Segoe Print', 'Bradley Hand', 'Chalkboard SE', Chalkboard, 'Comic Sans MS', cursive" fill="#868e96" text-anchor="start" opacity="1.00"><tspan x="580.00" dy="14.00">~6,000 tests</tspan></text>
</svg>